<?xml version="1.0" standalone="no"?><!DOCTYPE svg PUBLIC "-//W3C//DTD SVG 1.1//EN" "http://www.w3.org/Graphics/SVG/1.1/DTD/svg11.dtd"><svg t="1783073810402" class="icon" viewBox="0 0 1024 1024" version="1.1" xmlns="http://www.w3.org/2000/svg" p-id="7131" xmlns:xlink="http://www.w3.org/1999/xlink" width="256" height="256"><path d="M274.334476 272.286476c51.736381-88.697905 179.882667-88.746667 231.619048 0l257.072762 440.710095a36.571429 36.571429 0 0 1-63.097905 36.864L442.758095 309.150476a60.952381 60.952381 0 0 0-105.325714 0l-171.544381 294.034286a60.952381 60.952381 0 0 0 52.662857 91.672381h284.574476a36.571429 36.571429 0 0 1 0 73.142857H218.599619c-103.472762 0-167.984762-112.249905-115.858286-201.679238l171.593143-294.034286zM877.763048 353.52381a36.571429 36.571429 0 0 1 36.571428 36.571428v341.333333a36.571429 36.571429 0 0 1-73.142857 0V390.095238a36.571429 36.571429 0 0 1 36.571429-36.571428z m0-158.476191a48.761905 48.761905 0 1 1 0 97.52381 48.761905 48.761905 0 0 1 0-97.52381z" p-id="7132" fill="#1890ff"></path></svg>