<svg xmlns="http://www.w3.org/2000/svg" viewBox="0 0 100 100">
  <defs>
    <linearGradient id="bookGrad" x1="0%" y1="0%" x2="100%" y2="100%">
      <stop offset="0%" style="stop-color:#4f46e5;stop-opacity:1" />
      <stop offset="100%" style="stop-color:#7c3aed;stop-opacity:1" />
    </linearGradient>
    <linearGradient id="pageGrad" x1="0%" y1="0%" x2="0%" y2="100%">
      <stop offset="0%" style="stop-color:#ffffff;stop-opacity:1" />
      <stop offset="100%" style="stop-color:#f3f4f6;stop-opacity:1" />
    </linearGradient>
  </defs>
  
  <rect x="15" y="20" width="70" height="60" rx="4" fill="url(#bookGrad)" />
  
  <rect x="18" y="23" width="28" height="54" rx="2" fill="url(#pageGrad)" />
  <rect x="54" y="23" width="28" height="54" rx="2" fill="url(#pageGrad)" />
  
  <line x1="50" y1="23" x2="50" y2="77" stroke="#e5e7eb" stroke-width="1" />
  
  <circle cx="32" cy="35" r="2" fill="#9ca3af" />
  <circle cx="32" cy="45" r="2" fill="#9ca3af" />
  <circle cx="32" cy="55" r="2" fill="#9ca3af" />
  <circle cx="32" cy="65" r="2" fill="#9ca3af" />
  
  <circle cx="68" cy="35" r="2" fill="#9ca3af" />
  <circle cx="68" cy="45" r="2" fill="#9ca3af" />
  <circle cx="68" cy="55" r="2" fill="#9ca3af" />
  <circle cx="68" cy="65" r="2" fill="#9ca3af" />
  
  <path d="M62 40 L72 40 L72 45 L62 45 Z" fill="#4f46e5" />
  <path d="M62 50 L76 50 L76 55 L62 55 Z" fill="#4f46e5" />
  <path d="M62 60 L70 60 L70 65 L62 65 Z" fill="#4f46e5" />
</svg>